<?xml version="1.0" encoding="utf-8"?>
<!-- Generator: Adobe Illustrator 22.1.0, SVG Export Plug-In . SVG Version: 6.00 Build 0)  -->
<svg version="1.1" xmlns="http://www.w3.org/2000/svg" xmlns:xlink="http://www.w3.org/1999/xlink" x="0px" y="0px"
	 viewBox="0 0 64 64" style="enable-background:new 0 0 64 64;" xml:space="preserve">
<style type="text/css">
	.st0{display:none;}
	.st1{display:inline;}
	.st2{display:none;fill:#FF8736;}
	.st3{display:inline;fill:#FF8736;}
	.st4{fill:#FF8736;}
	.st5{fill:#FF742D;}
	.st6{display:none;fill:#6B594B;}
	.st7{display:inline;fill:#FFFFFF;}
	.st8{fill:#FFFFFF;}
</style>
<g id="Layer_1" class="st0">
	<g class="st1">
		<g id="Icon-User_2_" transform="translate(278.000000, 278.000000)">
			<path id="Fill-57_2_" class="st2" d="M-245.6-215.8c-22,0-38.6-23.3-26.5-46.6c2.3-4.5,5.9-8.1,10.4-10.4
				c23.3-12.2,46.6,4.4,46.6,26.5C-215-229.5-228.7-215.8-245.6-215.8L-245.6-215.8z M-245.6-273.7c-20.2,0-35.5,22.3-22.4,43.4
				c1.6,2.5,3.7,4.7,6.2,6.2c21.1,13.1,43.4-2.2,43.4-22.4C-218.3-261.4-230.6-273.7-245.6-273.7L-245.6-273.7z"/>
			<path id="Fill-58_2_" class="st2" d="M-266.6-225.7c0.9-2.2,3.7-3.3,6.9-4.7c3.1-1.4,6.9-3.1,6.9-5.1v-2.8
				c-1.2-0.9-2.9-2.9-3.2-5.9c-0.9-0.9-2.3-2.6-2.3-4.6c0-1.3,0.5-2.3,0.9-2.9c-0.3-1.4-0.8-4.2-0.8-6.4c0-7,4.9-11.6,12.5-11.6
				c2.2,0,4.9,0.6,6.3,2.2c3.5,0.6,6.3,4.7,6.3,9.5c0,3.1-0.5,5.6-0.9,6.8c0.4,0.6,0.8,1.5,0.8,2.6c0,2.4-1.2,4-2.3,4.7
				c-0.3,2.9-1.9,4.9-2.9,5.8v2.8c0,1.8,3.2,2.9,6.1,4.1c3.5,1.3,7,2.6,8.2,5.5l-3.2,1.2c-9,5.6-19.3,7.2-19.3,7.2s-15.8-4.6-17-6.7
				"/>
		</g>
	</g>
	<g>
		<path class="st3" d="M47.6,23.5c0.1,0,0.1-0.1,0.1-0.1l2-2c1.2-1.2,1.2-3,0-4.2l-3.7-3.6c-1.2-1.2-3.1-1.2-4.3,0l-2,2
			c0,0-0.1,0.1-0.1,0.1L47.6,23.5z"/>
		<polygon class="st3" points="19.2,43.4 23.2,47.3 18.5,48 13.9,48.6 14.6,44.1 15.3,39.5 		"/>
		<polygon class="st3" points="40.8,18.9 19.7,39.6 18.5,38.5 39.7,17.8 38.5,16.7 16.2,38.5 24.2,46.3 46.6,24.5 		"/>
	</g>
	<g id="Layer_3" class="st1">
		<g id="Page-1">
			<g id="icon-111-search">
				<path id="search" class="st4" d="M37.7,39.1c-6.8,4.8-16.2,3.2-21-3.5s-3.2-16.2,3.5-21s16.2-3.2,21,3.5
					c3.7,5.2,3.7,12.2,0,17.5l9.9,9.9c1,0.9,1,2.5,0,3.5c0,0,0,0,0,0l0,0c-1,1-2.5,1-3.5,0c0,0,0,0,0,0L37.7,39.1L37.7,39.1z
					 M28.9,38.3c6.4,0,11.5-5.2,11.5-11.5s-5.2-11.5-11.5-11.5s-11.5,5.2-11.5,11.5l0,0C17.4,33.2,22.6,38.3,28.9,38.3z"/>
			</g>
		</g>
	</g>
</g>
<g id="Layer_1_copy">
	<g>
		<g id="Icon-User_1_" transform="translate(278.000000, 278.000000)">
			<circle class="st5" cx="-245.6" cy="-246.4" r="30.6"/>
			<path id="Fill-57_1_" class="st6" d="M-245.6-215.8c-22,0-38.6-23.3-26.5-46.6c2.3-4.5,5.9-8.1,10.4-10.4
				c23.3-12.2,46.6,4.4,46.6,26.5C-215-229.5-228.7-215.8-245.6-215.8L-245.6-215.8z M-245.6-273.7c-20.2,0-35.5,22.3-22.4,43.4
				c1.6,2.5,3.7,4.7,6.2,6.2c21.1,13.1,43.4-2.2,43.4-22.4C-218.3-261.4-230.6-273.7-245.6-273.7L-245.6-273.7z"/>
			<path id="Fill-58_1_" class="st6" d="M-266.6-225.7c0.9-2.2,3.7-3.3,6.9-4.7c3.1-1.4,6.9-3.1,6.9-5.1v-2.8
				c-1.2-0.9-2.9-2.9-3.2-5.9c-0.9-0.9-2.3-2.6-2.3-4.6c0-1.3,0.5-2.3,0.9-2.9c-0.3-1.4-0.8-4.2-0.8-6.4c0-7,4.9-11.6,12.5-11.6
				c2.2,0,4.9,0.6,6.3,2.2c3.5,0.6,6.3,4.7,6.3,9.5c0,3.1-0.5,5.6-0.9,6.8c0.4,0.6,0.8,1.5,0.8,2.6c0,2.4-1.2,4-2.3,4.7
				c-0.3,2.9-1.9,4.9-2.9,5.8v2.8c0,1.8,3.2,2.9,6.1,4.1c3.5,1.3,7,2.6,8.2,5.5l-3.2,1.2c-9,5.6-19.3,7.2-19.3,7.2s-15.8-4.6-17-6.7
				"/>
		</g>
	</g>
	<g class="st0">
		<path class="st7" d="M47.6,23.5c0.1,0,0.1-0.1,0.1-0.1l2-2c1.2-1.2,1.2-3,0-4.2l-3.7-3.6c-1.2-1.2-3.1-1.2-4.3,0l-2,2
			c0,0-0.1,0.1-0.1,0.1L47.6,23.5z"/>
		<polygon class="st7" points="19.2,43.4 23.2,47.3 18.5,48 13.9,48.6 14.6,44.1 15.3,39.5 		"/>
		<polygon class="st7" points="40.8,18.9 19.7,39.6 18.5,38.5 39.7,17.8 38.5,16.7 16.2,38.5 24.2,46.3 46.6,24.5 		"/>
	</g>
	<g id="Layer_3_copy">
		<g id="Page-1_1_">
			<g id="icon-111-search_1_">
				<path id="search_1_" class="st8" d="M37.7,39.1c-6.8,4.8-16.2,3.2-21-3.5s-3.2-16.2,3.5-21s16.2-3.2,21,3.5
					c3.7,5.2,3.7,12.2,0,17.5l9.9,9.9c1,0.9,1,2.5,0,3.5c0,0,0,0,0,0l0,0c-1,1-2.5,1-3.5,0c0,0,0,0,0,0L37.7,39.1L37.7,39.1z
					 M28.9,38.3c6.4,0,11.5-5.2,11.5-11.5s-5.2-11.5-11.5-11.5s-11.5,5.2-11.5,11.5l0,0C17.4,33.2,22.6,38.3,28.9,38.3z"/>
			</g>
		</g>
	</g>
</g>
<g id="Layer_2">
</g>
</svg>
