<?xml version="1.0" encoding="utf-8"?>
<!-- Generator: Adobe Illustrator 22.1.0, SVG Export Plug-In . SVG Version: 6.00 Build 0)  -->
<svg version="1.1" id="Layer_1" xmlns="http://www.w3.org/2000/svg" xmlns:xlink="http://www.w3.org/1999/xlink" x="0px" y="0px"
	 viewBox="0 0 30.7 30.7" style="enable-background:new 0 0 30.7 30.7;" xml:space="preserve">
<style type="text/css">
	.st0{fill:#FF6828;}
</style>
<title>weku-search-on</title>
<g id="Page-1">
	<g id="icon-111-search">
		<path id="search" class="st0" d="M19.1,21.9c-5.3,3.8-12.7,2.5-16.4-2.8S0.1,6.4,5.4,2.7s12.7-2.5,16.4,2.8
			c2.9,4.1,2.9,9.6,0,13.7l7.7,7.7c0.8,0.7,0.8,1.9,0,2.7c0,0,0,0,0,0l0,0c-0.8,0.8-2,0.8-2.7,0c0,0,0,0,0,0L19.1,21.9L19.1,21.9z
			 M12.3,21.3c5,0,9-4,9-9s-4-9-9-9s-9,4-9,9l0,0C3.3,17.2,7.3,21.3,12.3,21.3z"/>
	</g>
</g>
</svg>
